<?xml version="1.0" standalone="no"?>
<!DOCTYPE svg PUBLIC "-//W3C//DTD SVG 20010904//EN"
 "http://www.w3.org/TR/2001/REC-SVG-20010904/DTD/svg10.dtd">
<svg version="1.0" xmlns="http://www.w3.org/2000/svg"
 width="372.000000pt" height="372.000000pt" viewBox="0 0 372.000000 372.000000"
 preserveAspectRatio="xMidYMid meet">
<metadata>
Created by potrace 1.14, written by Peter Selinger 2001-2017
</metadata>
<g transform="translate(0.000000,372.000000) scale(0.100000,-0.100000)"
fill="#000000" stroke="none">
<path d="M942 3284 c-168 -34 -307 -170 -342 -334 -12 -61 -11 -2154 2 -2200
4 -14 22 -54 40 -89 61 -119 195 -211 333 -229 104 -14 183 1 270 51 31 18
680 490 1210 879 256 188 286 216 326 299 66 136 65 271 -3 406 -26 51 -105
135 -169 178 -24 16 -46 32 -49 35 -3 3 -106 80 -230 170 -124 90 -280 204
-348 254 -68 50 -152 111 -186 136 -34 25 -168 122 -297 216 -129 94 -257 183
-284 197 -79 39 -177 50 -273 31z m153 -149 c34 -6 151 -74 220 -129 22 -18
31 -24 520 -381 845 -617 785 -569 818 -644 30 -67 30 -180 -1 -242 -33 -68
-56 -89 -282 -253 -113 -82 -245 -179 -294 -215 -49 -36 -118 -86 -152 -111
-88 -63 -412 -300 -584 -426 -175 -129 -229 -156 -308 -155 -78 1 -115 13
-177 60 -38 29 -61 57 -82 98 l-28 58 0 1070 0 1070 23 42 c48 90 127 149 217
163 43 7 48 7 110 -5z"/>
</g>
</svg>
